<svg width="21" height="16" viewBox="0 0 21 16" fill="none" xmlns="http://www.w3.org/2000/svg">
<path d="M18.2629 3.99704C18.2759 4.17204 18.2759 4.34604 18.2759 4.52004C18.2759 9.84504 14.2229 15.981 6.81588 15.981C4.53388 15.981 2.41388 15.32 0.629883 14.172C0.953883 14.209 1.26588 14.222 1.60288 14.222C3.48588 14.222 5.21888 13.586 6.60388 12.501C4.83288 12.464 3.34888 11.304 2.83688 9.70804C3.08588 9.74504 3.33588 9.77004 3.59788 9.77004C3.95888 9.77004 4.32188 9.72004 4.65888 9.63304C2.81188 9.25904 1.42888 7.63804 1.42888 5.68004V5.63004C1.96588 5.92904 2.58888 6.11604 3.24888 6.14104C2.16388 5.41904 1.45288 4.18404 1.45288 2.78704C1.45288 2.03904 1.65188 1.35304 2.00088 0.755043C3.98388 3.19804 6.96488 4.79504 10.3069 4.97004C10.2449 4.67004 10.2069 4.35904 10.2069 4.04704C10.2069 1.82704 12.0029 0.019043 14.2349 0.019043C15.3949 0.019043 16.4419 0.505043 17.1779 1.29104C18.0879 1.11604 18.9599 0.779043 19.7339 0.318043C19.4349 1.25304 18.7979 2.03904 17.9629 2.53804C18.7739 2.45004 19.5599 2.22604 20.2819 1.91404C19.7339 2.71204 19.0489 3.42304 18.2629 3.99704Z" fill="#0A142F"/>
</svg>
