<svg width="21" height="21" viewBox="0 0 21 21" fill="none" xmlns="http://www.w3.org/2000/svg">
<g clip-path="url(#clip0_1_1194)">
<path d="M13.2988 7.38C13.0401 7.38 12.8304 7.58968 12.8304 7.84839V16.7008C12.8304 16.9594 13.0401 17.1692 13.2988 17.1692C13.5575 17.1692 13.7672 16.9594 13.7672 16.7008V7.84839C13.7672 7.58968 13.5575 7.38 13.2988 7.38Z" fill="#D13821"/>
<path d="M7.77057 7.38049C7.51186 7.38049 7.30219 7.59017 7.30219 7.84888V16.7013C7.30219 16.9599 7.51186 17.1697 7.77057 17.1697C8.02928 17.1697 8.23895 16.9599 8.23895 16.7013V7.84888C8.23895 7.59017 8.02928 7.38049 7.77057 7.38049Z" fill="#D13821"/>
<path d="M3.74331 6.08859V17.6286C3.74331 18.3106 3.99342 18.9512 4.43033 19.4108C4.86523 19.8717 5.47047 20.1333 6.10388 20.1344H14.9658C15.5994 20.1333 16.2047 19.8717 16.6394 19.4108C17.0763 18.9512 17.3264 18.3106 17.3264 17.6286V6.08859C18.1949 5.85806 18.7577 5.019 18.6415 4.12779C18.5252 3.23676 17.7661 2.57023 16.8674 2.57005H14.4693V1.98457C14.472 1.49222 14.2773 1.01945 13.9288 0.671637C13.5803 0.32401 13.1068 0.130436 12.6144 0.134461H8.45531C7.96296 0.130436 7.48945 0.32401 7.14091 0.671637C6.79237 1.01945 6.5977 1.49222 6.60044 1.98457V2.57005H4.20236C3.30365 2.57023 2.54454 3.23676 2.42818 4.12779C2.312 5.019 2.87479 5.85806 3.74331 6.08859ZM14.9658 19.1976H6.10388C5.30306 19.1976 4.68007 18.5097 4.68007 17.6286V6.12976H16.3896V17.6286C16.3896 18.5097 15.7667 19.1976 14.9658 19.1976ZM7.53721 1.98457C7.5341 1.74068 7.62997 1.50594 7.80305 1.33378C7.97595 1.16161 8.21124 1.06702 8.45531 1.07123H12.6144C12.8585 1.06702 13.0938 1.16161 13.2667 1.33378C13.4397 1.50576 13.5356 1.74068 13.5325 1.98457V2.57005H7.53721V1.98457ZM4.20236 3.50682H16.8674C17.333 3.50682 17.7104 3.88427 17.7104 4.3499C17.7104 4.81554 17.333 5.19299 16.8674 5.19299H4.20236C3.73672 5.19299 3.35927 4.81554 3.35927 4.3499C3.35927 3.88427 3.73672 3.50682 4.20236 3.50682Z" fill="#D13821"/>
<path d="M10.5351 7.38C10.2764 7.38 10.0667 7.58968 10.0667 7.84839V16.7008C10.0667 16.9594 10.2764 17.1692 10.5351 17.1692C10.7938 17.1692 11.0035 16.9594 11.0035 16.7008V7.84839C11.0035 7.58968 10.7938 7.38 10.5351 7.38Z" fill="#D13821"/>
</g>
<defs>
<clipPath id="clip0_1_1194">
<rect width="20" height="20" fill="white" transform="translate(0.538757 0.134766)"/>
</clipPath>
</defs>
</svg>
