<svg width="86" height="41" viewBox="0 0 86 41" fill="none" xmlns="http://www.w3.org/2000/svg">
<rect width="34.6564" height="5.69695" rx="2.84847" fill="#269255"/>
<rect x="19.9386" y="5.69684" width="34.6564" height="5.69695" rx="2.84847" transform="rotate(89.0694 19.9386 5.69684)" fill="#269255"/>
<path d="M80.0658 27.744C78.9644 27.744 77.9896 27.5098 77.1414 27.0414C76.3058 26.573 75.6475 25.9273 75.1665 25.1044C74.698 24.2689 74.4638 23.3194 74.4638 22.2559V14.1283H77.4642V22.4268C77.4642 22.9586 77.5782 23.4206 77.806 23.8131C78.0339 24.2056 78.3441 24.5094 78.7365 24.7246C79.1417 24.9272 79.5848 25.0285 80.0658 25.0285C80.5722 25.0285 81.0153 24.9272 81.3951 24.7246C81.7749 24.5094 82.0724 24.2119 82.2876 23.8321C82.5155 23.4396 82.6295 22.9776 82.6295 22.4458V14.1283H85.6299V22.2749C85.6299 23.3384 85.3956 24.2815 84.9272 25.1044C84.4588 25.9273 83.8068 26.573 82.9713 27.0414C82.1357 27.5098 81.1672 27.744 80.0658 27.744Z" fill="url(#paint0_linear_1_1428)"/>
<path d="M64.7862 27.5351V25.2184H67.9386C68.5209 25.2184 68.9767 25.0474 69.3058 24.7056C69.635 24.3638 69.7996 23.946 69.7996 23.4523C69.7996 23.1105 69.7236 22.8066 69.5717 22.5408C69.4198 22.2749 69.2045 22.066 68.926 21.9141C68.6602 21.7622 68.331 21.6862 67.9386 21.6862H64.7862V19.4265H67.6917C68.1854 19.4265 68.5842 19.3062 68.888 19.0657C69.1919 18.8125 69.3438 18.4327 69.3438 17.9263C69.3438 17.4325 69.1919 17.0654 68.888 16.8249C68.5842 16.5717 68.1854 16.4451 67.6917 16.4451H64.7862V14.1283H68.2614C69.1223 14.1283 69.8502 14.2865 70.4452 14.603C71.0529 14.9195 71.515 15.3436 71.8315 15.8754C72.148 16.4071 72.3062 16.9958 72.3062 17.6414C72.3062 18.4643 72.0404 19.1606 71.5086 19.7303C70.9769 20.3 70.192 20.6924 69.1539 20.9077L69.2299 19.9012C70.3566 20.1164 71.2238 20.5532 71.8315 21.2115C72.4518 21.8698 72.762 22.68 72.762 23.6422C72.762 24.3765 72.5784 25.0411 72.2113 25.6361C71.8568 26.2185 71.3377 26.6806 70.6541 27.0224C69.9831 27.3642 69.1729 27.5351 68.2234 27.5351H64.7862ZM62.5075 27.5351V14.1283H65.4509V27.5351H62.5075Z" fill="url(#paint1_linear_1_1428)"/>
<path d="M46.2066 27.5351V14.1283H48.3335L53.6127 22.3509H52.5302L57.7904 14.1283H59.9363V27.5351H56.9549V19.1606L57.4866 19.2935L54.0494 24.6487H52.0745L48.6563 19.2935L49.169 19.1606V27.5351H46.2066Z" fill="url(#paint2_linear_1_1428)"/>
<path d="M40.6432 27.5351V14.1283H43.6246V27.5351H40.6432Z" fill="url(#paint3_linear_1_1428)"/>
<path d="M31.8002 27.5352V14.3183H34.7816V27.5352H31.8002ZM27.6035 16.73V14.1284H38.9784V16.73H27.6035Z" fill="url(#paint4_linear_1_1428)"/>
<defs>
<linearGradient id="paint0_linear_1_1428" x1="74.4638" y1="20.9361" x2="85.6299" y2="20.9361" gradientUnits="userSpaceOnUse">
<stop stop-color="#0F8642"/>
<stop offset="0.975" stop-color="#0F8642" stop-opacity="0.7"/>
</linearGradient>
<linearGradient id="paint1_linear_1_1428" x1="62.5075" y1="20.8317" x2="72.762" y2="20.8317" gradientUnits="userSpaceOnUse">
<stop stop-color="#0F8642"/>
<stop offset="0.975" stop-color="#0F8642" stop-opacity="0.7"/>
</linearGradient>
<linearGradient id="paint2_linear_1_1428" x1="46.2066" y1="20.8317" x2="59.9363" y2="20.8317" gradientUnits="userSpaceOnUse">
<stop stop-color="#0F8642"/>
<stop offset="0.975" stop-color="#0F8642" stop-opacity="0.7"/>
</linearGradient>
<linearGradient id="paint3_linear_1_1428" x1="40.6432" y1="20.8317" x2="43.6246" y2="20.8317" gradientUnits="userSpaceOnUse">
<stop stop-color="#0F8642"/>
<stop offset="0.975" stop-color="#0F8642" stop-opacity="0.7"/>
</linearGradient>
<linearGradient id="paint4_linear_1_1428" x1="27.6035" y1="20.8318" x2="38.9784" y2="20.8318" gradientUnits="userSpaceOnUse">
<stop stop-color="#0F8642"/>
<stop offset="0.975" stop-color="#0F8642" stop-opacity="0.7"/>
</linearGradient>
</defs>
</svg>
