<svg width="86" height="42" viewBox="0 0 86 42" fill="none" xmlns="http://www.w3.org/2000/svg">
<rect y="0.779297" width="34.6564" height="5.69695" rx="2.84847" fill="#269255"/>
<rect x="19.9386" y="6.47607" width="34.6564" height="5.69695" rx="2.84847" transform="rotate(89.0694 19.9386 6.47607)" fill="#269255"/>
<path d="M80.0658 28.5234C78.9644 28.5234 77.9896 28.2892 77.1414 27.8208C76.3058 27.3524 75.6475 26.7067 75.1665 25.8838C74.698 25.0483 74.4638 24.0988 74.4638 23.0354V14.9077H77.4642V23.2063C77.4642 23.738 77.5782 24.2001 77.806 24.5925C78.0339 24.985 78.3441 25.2888 78.7365 25.504C79.1417 25.7066 79.5848 25.8079 80.0658 25.8079C80.5722 25.8079 81.0153 25.7066 81.3951 25.504C81.7749 25.2888 82.0724 24.9913 82.2876 24.6115C82.5155 24.2191 82.6295 23.757 82.6295 23.2253V14.9077H85.6299V23.0543C85.6299 24.1178 85.3956 25.0609 84.9272 25.8838C84.4588 26.7067 83.8068 27.3524 82.9713 27.8208C82.1357 28.2892 81.1672 28.5234 80.0658 28.5234Z" fill="url(#paint0_linear_2002_114)"/>
<path d="M64.7862 28.3145V25.9978H67.9386C68.5209 25.9978 68.9767 25.8269 69.3058 25.485C69.635 25.1432 69.7996 24.7255 69.7996 24.2317C69.7996 23.8899 69.7236 23.5861 69.5717 23.3202C69.4198 23.0543 69.2045 22.8455 68.926 22.6935C68.6602 22.5416 68.331 22.4657 67.9386 22.4657H64.7862V20.2059H67.6917C68.1854 20.2059 68.5842 20.0856 68.888 19.8451C69.1919 19.5919 69.3438 19.2121 69.3438 18.7057C69.3438 18.2119 69.1919 17.8448 68.888 17.6043C68.5842 17.3511 68.1854 17.2245 67.6917 17.2245H64.7862V14.9077H68.2614C69.1223 14.9077 69.8502 15.066 70.4452 15.3825C71.0529 15.699 71.515 16.1231 71.8315 16.6548C72.148 17.1865 72.3062 17.7752 72.3062 18.4208C72.3062 19.2437 72.0404 19.94 71.5086 20.5097C70.9769 21.0794 70.192 21.4719 69.1539 21.6871L69.2299 20.6806C70.3566 20.8958 71.2238 21.3326 71.8315 21.9909C72.4518 22.6492 72.762 23.4595 72.762 24.4216C72.762 25.1559 72.5784 25.8205 72.2113 26.4155C71.8568 26.9979 71.3377 27.46 70.6541 27.8018C69.9831 28.1436 69.1729 28.3145 68.2234 28.3145H64.7862ZM62.5075 28.3145V14.9077H65.4509V28.3145H62.5075Z" fill="url(#paint1_linear_2002_114)"/>
<path d="M46.2066 28.3145V14.9077H48.3335L53.6126 23.1303H52.5302L57.7904 14.9077H59.9363V28.3145H56.9549V19.94L57.4866 20.0729L54.0494 25.4281H52.0745L48.6563 20.0729L49.169 19.94V28.3145H46.2066Z" fill="url(#paint2_linear_2002_114)"/>
<path d="M40.6432 28.3145V14.9077H43.6246V28.3145H40.6432Z" fill="url(#paint3_linear_2002_114)"/>
<path d="M31.8002 28.3145V15.0976H34.7816V28.3145H31.8002ZM27.6035 17.5093V14.9077H38.9784V17.5093H27.6035Z" fill="url(#paint4_linear_2002_114)"/>
<defs>
<linearGradient id="paint0_linear_2002_114" x1="74.4638" y1="21.7156" x2="85.6299" y2="21.7156" gradientUnits="userSpaceOnUse">
<stop stop-color="#0F8642"/>
<stop offset="0.975" stop-color="#0F8642" stop-opacity="0.7"/>
</linearGradient>
<linearGradient id="paint1_linear_2002_114" x1="62.5075" y1="21.6111" x2="72.762" y2="21.6111" gradientUnits="userSpaceOnUse">
<stop stop-color="#0F8642"/>
<stop offset="0.975" stop-color="#0F8642" stop-opacity="0.7"/>
</linearGradient>
<linearGradient id="paint2_linear_2002_114" x1="46.2066" y1="21.6111" x2="59.9363" y2="21.6111" gradientUnits="userSpaceOnUse">
<stop stop-color="#0F8642"/>
<stop offset="0.975" stop-color="#0F8642" stop-opacity="0.7"/>
</linearGradient>
<linearGradient id="paint3_linear_2002_114" x1="40.6432" y1="21.6111" x2="43.6246" y2="21.6111" gradientUnits="userSpaceOnUse">
<stop stop-color="#0F8642"/>
<stop offset="0.975" stop-color="#0F8642" stop-opacity="0.7"/>
</linearGradient>
<linearGradient id="paint4_linear_2002_114" x1="27.6035" y1="21.6111" x2="38.9784" y2="21.6111" gradientUnits="userSpaceOnUse">
<stop stop-color="#0F8642"/>
<stop offset="0.975" stop-color="#0F8642" stop-opacity="0.7"/>
</linearGradient>
</defs>
</svg>
