<svg width="16" height="16" viewBox="0 0 16 16" fill="none" xmlns="http://www.w3.org/2000/svg">
<path fill-rule="evenodd" clip-rule="evenodd" d="M5.99996 7.72405V4.00005C5.99996 3.82324 5.92972 3.65367 5.8047 3.52865C5.67967 3.40363 5.5101 3.33339 5.33329 3.33339C5.15648 3.33339 4.98691 3.40363 4.86189 3.52865C4.73686 3.65367 4.66663 3.82324 4.66663 4.00005V12.0001C4.66663 12.1769 4.73686 12.3464 4.86189 12.4715C4.98691 12.5965 5.15648 12.6667 5.33329 12.6667C5.5101 12.6667 5.67967 12.5965 5.8047 12.4715C5.92972 12.3464 5.99996 12.1769 5.99996 12.0001V9.60939L6.66663 8.94272L10.1953 12.4714C10.2568 12.5351 10.3304 12.5858 10.4117 12.6208C10.493 12.6557 10.5805 12.6741 10.669 12.6749C10.7575 12.6757 10.8453 12.6588 10.9273 12.6253C11.0092 12.5917 11.0836 12.5422 11.1462 12.4797C11.2088 12.4171 11.2583 12.3426 11.2918 12.2607C11.3254 12.1788 11.3422 12.091 11.3415 12.0025C11.3407 11.9139 11.3223 11.8265 11.2874 11.7451C11.2524 11.6638 11.2016 11.5902 11.138 11.5287L7.60929 8.00005L11.138 4.47139C11.2016 4.40989 11.2524 4.33633 11.2874 4.25499C11.3223 4.17365 11.3407 4.08617 11.3415 3.99766C11.3422 3.90914 11.3254 3.82135 11.2918 3.73942C11.2583 3.65749 11.2088 3.58305 11.1462 3.52046C11.0836 3.45786 11.0092 3.40836 10.9273 3.37484C10.8453 3.34132 10.7575 3.32445 10.669 3.32522C10.5805 3.32599 10.493 3.34438 10.4117 3.37932C10.3304 3.41426 10.2568 3.46505 10.1953 3.52872L5.99996 7.72405Z" fill="black" fill-opacity="0.6"/>
</svg>
