<svg width="13" height="14" viewBox="0 0 13 14" fill="none" xmlns="http://www.w3.org/2000/svg">
<path fill-rule="evenodd" clip-rule="evenodd" d="M6.43791 11.3116C4.00883 9.92808 2.65405 8.55299 1.99893 7.3599C1.32841 6.13878 1.38692 5.11029 1.75899 4.38034C2.52376 2.87996 4.69854 2.40018 6.02359 4.07605L6.43788 4.60002L6.85219 4.07607C8.17747 2.40014 10.3524 2.87999 11.1171 4.38034C11.4892 5.11028 11.5477 6.13876 10.8771 7.35988C10.2219 8.55298 8.86709 9.92807 6.43791 11.3116ZM6.43793 2.96579C4.57391 1.19452 1.82407 1.92659 0.81786 3.90063C0.265639 4.98401 0.258096 6.38425 1.073 7.86833C1.88067 9.33924 3.49101 10.8918 6.18241 12.3794L6.4379 12.5206L6.69339 12.3794C9.38489 10.8918 10.9953 9.33924 11.803 7.86834C12.618 6.38427 12.6105 4.98402 12.0583 3.90063C11.052 1.92655 8.3021 1.19455 6.43793 2.96579Z" fill="#269255"/>
</svg>
