<svg width="41" height="40" viewBox="0 0 41 40" fill="none" xmlns="http://www.w3.org/2000/svg">
<path d="M11.1598 23.394C10.9472 24.7471 11.8979 25.6862 13.0619 26.1542C17.5247 27.9486 23.7351 27.9486 28.1978 26.1542C29.3619 25.6862 30.3126 24.7471 30.1 23.394C29.9693 22.5625 29.323 21.8701 28.8443 21.194C28.2172 20.2975 28.1548 19.3197 28.1548 18.2794C28.1548 14.2591 24.7858 11 20.6299 11C16.474 11 13.105 14.2591 13.105 18.2794C13.1049 19.3197 13.0426 20.2975 12.4155 21.194C11.9367 21.8701 11.2905 22.5625 11.1598 23.394Z" stroke="black" stroke-linecap="round" stroke-linejoin="round"/>
<path d="M17.6299 30C18.426 30.6219 19.4774 31 20.6299 31C21.7824 31 22.8337 30.6219 23.6299 30" stroke="black" stroke-linecap="round" stroke-linejoin="round"/>
<circle cx="27.6299" cy="11" r="4.5" fill="#269255" stroke="white"/>
</svg>
