<svg width="29" height="26" viewBox="0 0 29 26" fill="none" xmlns="http://www.w3.org/2000/svg">
<g clip-path="url(#clip0_2002_134)">
<path d="M3.70695 3.14137C3.82413 3.23293 3.90733 3.36105 3.94332 3.50533L4.48334 5.66667H19.9638M3.70695 3.14137C3.58977 3.0498 3.44534 3.00004 3.29663 3M3.70695 3.14137L3.39909 3.53535C3.42839 3.55824 3.44918 3.59027 3.45818 3.62634L3.45823 3.62653L3.99825 5.78787L4.09289 6.16667H4.48334L19.9634 6.16667L19.9638 5.66667M3.70695 3.14137L3.39909 3.53535C3.36983 3.51248 3.33377 3.50004 3.29663 3.5V3M3.29663 3H1.29657C1.11975 3 0.950179 3.07024 0.825151 3.19526C0.700123 3.32029 0.629883 3.48986 0.629883 3.66667C0.629883 3.84348 0.700123 4.01305 0.825151 4.13807C0.950179 4.2631 1.11975 4.33333 1.29657 4.33333H2.77662L3.30997 6.476L5.30869 17.1227C5.33729 17.2754 5.41837 17.4134 5.53792 17.5127C5.58355 17.5507 5.6337 17.582 5.68691 17.6064C5.77672 17.5534 5.86899 17.5049 5.96338 17.4611V17.1667H5.96384M3.29663 3L3.29649 3.5L1.29657 3.5C1.25236 3.5 1.20996 3.51756 1.1787 3.54882C1.14744 3.58008 1.12988 3.62247 1.12988 3.66667C1.12988 3.71086 1.14744 3.75326 1.1787 3.78451C1.20996 3.81577 1.25236 3.83333 1.29657 3.83333H2.77662H3.16741L3.26181 4.21256L3.79516 6.35523L3.79869 6.3694L3.80138 6.38375L5.80011 17.0304L5.80016 17.0307C5.80731 17.0689 5.82757 17.1033 5.85746 17.1282C5.88735 17.153 5.92498 17.1666 5.96384 17.1667M5.96384 17.1667L5.96357 17.461C6.37738 17.2689 6.8318 17.1667 7.29676 17.1667M5.96384 17.1667H7.29676M7.29676 17.1667C7.90684 17.1667 8.49878 17.3427 9.00465 17.6667H14.9225C15.4284 17.3427 16.0203 17.1667 16.6304 17.1667M7.29676 17.1667H16.6304M16.6304 17.1667C17.0953 17.1667 17.5498 17.2689 17.9636 17.461L17.9633 17.1667M16.6304 17.1667H17.9633M17.9633 17.1667H17.9638V17.4611C18.0581 17.5049 18.1504 17.5533 18.2402 17.6064C18.2934 17.582 18.3436 17.5507 18.3892 17.5127C18.5088 17.4134 18.5898 17.2754 18.6184 17.1227L20.6185 6.456M17.9633 17.1667C18.0022 17.1666 18.0398 17.153 18.0697 17.1282C18.0996 17.1033 18.1198 17.0689 18.127 17.0307L18.127 17.0305L20.127 6.36399M20.6185 6.456C20.6365 6.35978 20.6331 6.26078 20.6085 6.16602C20.584 6.07127 20.5388 5.98308 20.4764 5.90774C20.4139 5.83239 20.3355 5.77173 20.247 5.73007C20.1584 5.6884 20.0617 5.66676 19.9638 5.66667M20.6185 6.456L20.127 6.36399M20.6185 6.456L20.1271 6.36385L20.127 6.36399M19.9638 5.66667V6.16667H19.9635C19.9879 6.16671 20.012 6.17213 20.0342 6.18252C20.0563 6.19294 20.0759 6.2081 20.0915 6.22694C20.1071 6.24578 20.1184 6.26782 20.1245 6.29151C20.1307 6.3152 20.1315 6.33995 20.127 6.36399M16.6304 18.1667H15.0757C14.9587 18.2507 14.8479 18.3445 14.7447 18.4477C14.2446 18.9478 13.9636 19.6261 13.9636 20.3333C13.9636 21.0406 14.2446 21.7189 14.7447 22.219C15.2448 22.719 15.9231 23 16.6304 23C17.3376 23 18.0159 22.719 18.5161 22.219C19.0162 21.7189 19.2971 21.0406 19.2971 20.3333C19.2971 19.6261 19.0162 18.9478 18.5161 18.4477C18.4059 18.3375 18.287 18.238 18.1611 18.1497C18.0965 18.1609 18.0306 18.1666 17.9642 18.1667H17.9638H16.6304ZM16.6304 18.1667C16.0557 18.1667 15.5046 18.3949 15.0982 18.8013C14.6919 19.2076 14.4636 19.7587 14.4636 20.3333C14.4636 20.908 14.6919 21.4591 15.0982 21.8654C15.5046 22.2717 16.0557 22.5 16.6304 22.5C17.205 22.5 17.7562 22.2717 18.1625 21.8654C18.5688 21.4591 18.7971 20.908 18.7971 20.3333C18.7971 19.7587 18.5688 19.2076 18.1625 18.8013C17.7562 18.3949 17.205 18.1667 16.6304 18.1667ZM7.29676 18.1667H5.96338H5.96292C5.89654 18.1666 5.83068 18.1609 5.76599 18.1497C5.6401 18.238 5.52127 18.3375 5.41108 18.4477C4.91097 18.9478 4.63001 19.6261 4.63001 20.3333C4.63001 21.0406 4.91097 21.7189 5.41108 22.219C5.91119 22.719 6.58949 23 7.29676 23C8.00402 23 8.68232 22.719 9.18243 22.219C9.68254 21.7189 9.9635 21.0406 9.9635 20.3333C9.9635 19.6261 9.68254 18.9478 9.18243 18.4477C9.07923 18.3445 8.96845 18.2507 8.85139 18.1667H7.29676ZM7.29676 18.1667C6.72209 18.1667 6.17097 18.3949 5.76463 18.8013C5.35828 19.2076 5.13001 19.7587 5.13001 20.3333C5.13001 20.908 5.35828 21.4591 5.76463 21.8654C6.17097 22.2717 6.72209 22.5 7.29676 22.5C7.87142 22.5 8.42254 22.2717 8.82889 21.8654C9.23523 21.4591 9.4635 20.908 9.4635 20.3333C9.4635 19.7587 9.23523 19.2076 8.82888 18.8013C8.42254 18.3949 7.87142 18.1667 7.29676 18.1667ZM4.76601 6.5H4.1635L4.27458 7.09218L6.0253 16.4255L6.1018 16.8333H6.51673H17.4104H17.8253L17.9018 16.4255L19.6525 7.09218L19.7636 6.5H19.1611H4.76601ZM8.59314 19.037C8.24932 18.6932 7.78299 18.5 7.29676 18.5C6.81052 18.5 6.34419 18.6932 6.00037 19.037C5.65654 19.3808 5.46338 19.8471 5.46338 20.3333C5.46338 20.8196 5.65654 21.2859 6.00037 21.6297C6.34419 21.9735 6.81052 22.1667 7.29676 22.1667C7.78299 22.1667 8.24932 21.9735 8.59314 21.6297C8.93697 21.2859 9.13013 20.8196 9.13013 20.3333C9.13013 19.8471 8.93697 19.3808 8.59314 19.037ZM17.9268 19.037C17.5829 18.6932 17.1166 18.5 16.6304 18.5C16.1441 18.5 15.6778 18.6932 15.334 19.037C14.9902 19.3808 14.797 19.8471 14.797 20.3333C14.797 20.8196 14.9902 21.2859 15.334 21.6297C15.6778 21.9735 16.1441 22.1667 16.6304 22.1667C17.1166 22.1667 17.5829 21.9735 17.9268 21.6297C18.2706 21.2859 18.4638 20.8196 18.4638 20.3333C18.4638 19.8471 18.2706 19.3808 17.9268 19.037Z" stroke="black"/>
</g>
<circle cx="22.6299" cy="6.5" r="6" fill="white"/>
<circle cx="22.6299" cy="6.5" r="4" fill="#269255"/>
<defs>
<clipPath id="clip0_2002_134">
<rect width="24" height="24" fill="white" transform="translate(0.629883 1.5)"/>
</clipPath>
</defs>
</svg>
