<svg width="41" height="40" viewBox="0 0 41 40" fill="none" xmlns="http://www.w3.org/2000/svg">
<path d="M24.1299 20C24.1299 21.933 22.5629 23.5 20.6299 23.5C18.6969 23.5 17.1299 21.933 17.1299 20C17.1299 18.067 18.6969 16.5 20.6299 16.5C22.5629 16.5 24.1299 18.067 24.1299 20Z" stroke="black"/>
<path d="M29.4205 17.152C30.2267 18.5418 30.6299 19.2366 30.6299 20C30.6299 20.7634 30.2267 21.4582 29.4205 22.848L27.4968 26.1638C26.6937 27.548 26.2921 28.2402 25.6318 28.6201C24.9715 29 24.1701 29 22.5672 29L18.6926 29C17.0897 29 16.2883 29 15.6279 28.6201C14.9676 28.2402 14.5661 27.548 13.763 26.1638L11.8393 22.848C11.033 21.4582 10.6299 20.7634 10.6299 20C10.6299 19.2366 11.033 18.5418 11.8393 17.152L13.763 13.8362C14.5661 12.452 14.9676 11.7598 15.6279 11.3799C16.2883 11 17.0897 11 18.6926 11L22.5672 11C24.1701 11 24.9715 11 25.6318 11.3799C26.2921 11.7598 26.6937 12.452 27.4968 13.8362L29.4205 17.152Z" stroke="black"/>
</svg>
