<svg width="1317" height="605" viewBox="0 0 1317 605" fill="none" xmlns="http://www.w3.org/2000/svg">
<mask id="mask0_1_1400" style="mask-type:alpha" maskUnits="userSpaceOnUse" x="0" y="3" width="1294" height="602">
<path d="M0 560C0 573.978 0 580.967 2.28361 586.481C5.32843 593.831 11.1687 599.672 18.5195 602.716C24.0326 605 31.0218 605 45 605H1236.43C1259.77 605 1271.44 605 1278.47 600.873C1287.85 595.371 1293.51 585.228 1293.28 574.36C1293.11 566.209 1286.99 556.273 1274.75 536.401L1019.15 121.421C1015.36 115.255 1013.46 112.172 1011.02 109.719C1007.78 106.448 1003.82 103.968 999.467 102.472C996.199 101.35 992.597 100.984 985.393 100.251L49.5546 5.0415C34.3218 3.49182 26.7055 2.71692 20.6582 4.69855C12.5952 7.34064 6.02813 13.2735 2.58348 21.0277C0 26.8433 0 34.499 0 49.8104V560Z" fill="#0081FE"/>
</mask>
<g mask="url(#mask0_1_1400)">
<g opacity="0.6">
<g opacity="0.2">
<path d="M737.798 521.584C717.48 509.27 699.553 494.718 685.211 477.927C704.333 472.33 722.261 464.494 737.798 455.539C758.714 443.226 776.642 428.114 790.984 410.763C800.545 416.36 811.302 420.838 823.851 424.196C839.986 428.114 859.109 430.353 881.817 430.353C1004.32 430.353 1025.24 365.987 1025.24 270.838L1025.24 37.4432L738.396 37.4432L738.396 204.234C738.396 282.032 722.261 339.122 651.148 357.592C645.77 359.271 639.196 360.39 633.22 361.51C630.83 347.517 630.232 332.965 630.232 318.413L630.232 -88.4893L1134.6 -88.4893L1134.6 318.413C1134.6 445.465 1053.92 556.845 882.415 556.845C823.254 556.845 775.446 543.412 737.798 521.584Z" fill="white"/>
</g>
<g opacity="0.4">
<path d="M593.182 489.896C627.245 489.896 657.722 485.419 685.211 477.583C704.334 471.986 722.262 464.15 737.799 455.195C758.714 442.881 776.642 427.769 790.984 410.419C804.729 394.747 815.485 376.837 823.852 357.807C838.194 325.344 845.365 289.524 845.365 252.024L845.365 37.0988L738.396 37.0988L738.396 203.889C738.396 281.688 722.262 338.777 651.149 357.247C645.77 358.926 639.197 360.046 633.221 361.165C621.269 362.844 608.122 363.964 593.182 363.964C470.677 363.964 449.761 299.598 449.761 204.449L449.761 37.0988L629.635 37.0988L629.635 -88.8337L341 -88.8337L341 252.024C341 378.516 421.674 489.896 593.182 489.896Z" fill="white"/>
</g>
</g>
</g>
</svg>
