<svg width="20" height="20" viewBox="0 0 20 20" fill="none" xmlns="http://www.w3.org/2000/svg">
<path d="M2.08337 9.99998C2.08337 6.26803 2.08337 4.40205 3.24274 3.24268C4.40211 2.08331 6.26809 2.08331 10 2.08331C13.732 2.08331 15.598 2.08331 16.7573 3.24268C17.9167 4.40205 17.9167 6.26803 17.9167 9.99998C17.9167 13.7319 17.9167 15.5979 16.7573 16.7573C15.598 17.9166 13.732 17.9166 10 17.9166C6.26809 17.9166 4.40211 17.9166 3.24274 16.7573C2.08337 15.5979 2.08337 13.7319 2.08337 9.99998Z" stroke="black"/>
<path d="M9.02778 6.66663L7.32425 8.42861C6.60808 9.16935 6.25 9.53972 6.25 9.99996C6.25 10.4602 6.60808 10.8306 7.32425 11.5713L9.02778 13.3333M13.75 6.66663L12.0465 8.42861C11.3303 9.16935 10.9722 9.53972 10.9722 9.99996C10.9722 10.4602 11.3303 10.8306 12.0465 11.5713L13.75 13.3333" stroke="black" stroke-linecap="round" stroke-linejoin="round"/>
</svg>
