<svg width="20" height="20" viewBox="0 0 20 20" fill="none" xmlns="http://www.w3.org/2000/svg">
<path d="M2.08331 9.99998C2.08331 6.26803 2.08331 4.40205 3.24268 3.24268C4.40205 2.08331 6.26803 2.08331 9.99998 2.08331C13.7319 2.08331 15.5979 2.08331 16.7573 3.24268C17.9166 4.40205 17.9166 6.26803 17.9166 9.99998C17.9166 13.7319 17.9166 15.5979 16.7573 16.7573C15.5979 17.9166 13.7319 17.9166 9.99998 17.9166C6.26803 17.9166 4.40205 17.9166 3.24268 16.7573C2.08331 15.5979 2.08331 13.7319 2.08331 9.99998Z" stroke="black"/>
<path d="M10.9722 6.66663L12.6758 8.42861C13.3919 9.16935 13.75 9.53972 13.75 9.99996C13.75 10.4602 13.3919 10.8306 12.6758 11.5713L10.9722 13.3333M6.25 6.66663L7.95353 8.42861C8.66969 9.16935 9.02778 9.53972 9.02778 9.99996C9.02778 10.4602 8.6697 10.8306 7.95353 11.5713L6.25 13.3333" stroke="black" stroke-linecap="round" stroke-linejoin="round"/>
</svg>
