<svg width="12" height="12" viewBox="0 0 12 12" fill="none" xmlns="http://www.w3.org/2000/svg">
<path fill-rule="evenodd" clip-rule="evenodd" d="M5.40378 1.01748C5.72486 0.277052 6.77489 0.277051 7.09596 1.01748L8.06722 3.25728L10.4975 3.48886C11.3009 3.56541 11.6254 4.56405 11.0204 5.09822L9.1904 6.71407L9.72116 9.09699C9.89662 9.88473 9.04712 10.5019 8.35215 10.0916L6.24987 8.85048L4.14759 10.0916C3.45263 10.5019 2.60313 9.88473 2.77859 9.09699L3.30935 6.71407L1.47931 5.09822C0.874341 4.56405 1.19882 3.56541 2.00222 3.48886L4.43253 3.25728L5.40378 1.01748ZM7.22113 3.62417L6.24987 1.38437L5.27862 3.62417C5.14499 3.93233 4.85438 4.14347 4.52001 4.17533L2.0897 4.40691L3.91974 6.02277C4.17153 6.24508 4.28253 6.58671 4.20951 6.91456L3.67875 9.29749L5.78103 8.05634C6.07027 7.88558 6.42948 7.88558 6.71872 8.05634L8.821 9.29749L8.29024 6.91456C8.21722 6.58671 8.32822 6.24508 8.58001 6.02276L10.41 4.40691L7.97974 4.17533C7.64536 4.14347 7.35476 3.93233 7.22113 3.62417Z" fill="#B3B7BC"/>
</svg>
