<svg width="11" height="10" viewBox="0 0 11 10" fill="none" xmlns="http://www.w3.org/2000/svg">
<path d="M6.22409 1.46394L6.95742 2.93061C7.05742 3.13477 7.32409 3.33061 7.54909 3.36811L8.87826 3.58894C9.72826 3.73061 9.92826 4.34727 9.31576 4.95561L8.28242 5.98894C8.10742 6.16394 8.01159 6.50144 8.06576 6.74311L8.36159 8.02227C8.59492 9.03477 8.05742 9.42644 7.16159 8.89727L5.91576 8.15977C5.69076 8.02644 5.31992 8.02644 5.09076 8.15977L3.84492 8.89727C2.95326 9.42644 2.41159 9.03061 2.64492 8.02227L2.94076 6.74311C2.99492 6.50144 2.89909 6.16394 2.72409 5.98894L1.69076 4.95561C1.08242 4.34727 1.27826 3.73061 2.12826 3.58894L3.45742 3.36811C3.67826 3.33061 3.94492 3.13477 4.04492 2.93061L4.77826 1.46394C5.17826 0.668107 5.82826 0.668107 6.22409 1.46394Z" stroke="#FFD203" stroke-width="1.5" stroke-linecap="round" stroke-linejoin="round"/>
</svg>
