<svg width="11" height="10" viewBox="0 0 11 10" fill="none" xmlns="http://www.w3.org/2000/svg">
<path d="M5.88986 1.46394L6.6232 2.93061C6.7232 3.13477 6.98986 3.33061 7.21486 3.36811L8.54403 3.58894C9.39403 3.73061 9.59403 4.34727 8.98153 4.95561L7.9482 5.98894C7.7732 6.16394 7.67736 6.50144 7.73153 6.74311L8.02736 8.02227C8.2607 9.03477 7.7232 9.42644 6.82736 8.89727L5.58153 8.15977C5.35653 8.02644 4.9857 8.02644 4.75653 8.15977L3.5107 8.89727C2.61903 9.42644 2.07736 9.03061 2.3107 8.02227L2.60653 6.74311C2.6607 6.50144 2.56486 6.16394 2.38986 5.98894L1.35653 4.95561C0.748196 4.34727 0.94403 3.73061 1.79403 3.58894L3.1232 3.36811C3.34403 3.33061 3.6107 3.13477 3.7107 2.93061L4.44403 1.46394C4.84403 0.668107 5.49403 0.668107 5.88986 1.46394Z" stroke="#FFD203" stroke-width="1.5" stroke-linecap="round" stroke-linejoin="round"/>
</svg>
