<svg width="9" height="10" viewBox="0 0 9 10" fill="none" xmlns="http://www.w3.org/2000/svg">
<path d="M5.22128 1.46394L5.95462 2.93061C6.05462 3.13477 6.32128 3.33061 6.54628 3.36811L7.87545 3.58894C8.72545 3.73061 8.92545 4.34727 8.31295 4.95561L7.27962 5.98894C7.10462 6.16394 7.00878 6.50144 7.06295 6.74311L7.35878 8.02227C7.59212 9.03477 7.05462 9.42644 6.15878 8.89727L4.91295 8.15977C4.68795 8.02644 4.31712 8.02644 4.08795 8.15977L2.84212 8.89727C1.95045 9.42644 1.40878 9.03061 1.64212 8.02227L1.93795 6.74311C1.99212 6.50144 1.89628 6.16394 1.72128 5.98894L0.68795 4.95561C0.079617 4.34727 0.27545 3.73061 1.12545 3.58894L2.45462 3.36811C2.67545 3.33061 2.94212 3.13477 3.04212 2.93061L3.77545 1.46394C4.17545 0.668107 4.82545 0.668107 5.22128 1.46394Z" fill="#FFD203"/>
</svg>
