<svg width="9" height="10" viewBox="0 0 9 10" fill="none" xmlns="http://www.w3.org/2000/svg">
<path d="M5.55551 1.46394L6.28885 2.93061C6.38885 3.13477 6.65551 3.33061 6.88051 3.36811L8.20968 3.58894C9.05968 3.73061 9.25968 4.34727 8.64718 4.95561L7.61385 5.98894C7.43885 6.16394 7.34301 6.50144 7.39718 6.74311L7.69301 8.02227C7.92635 9.03477 7.38885 9.42644 6.49301 8.89727L5.24718 8.15977C5.02218 8.02644 4.65135 8.02644 4.42218 8.15977L3.17635 8.89727C2.28468 9.42644 1.74301 9.03061 1.97635 8.02227L2.27218 6.74311C2.32635 6.50144 2.23051 6.16394 2.05551 5.98894L1.02218 4.95561C0.413846 4.34727 0.609679 3.73061 1.45968 3.58894L2.78885 3.36811C3.00968 3.33061 3.27635 3.13477 3.37635 2.93061L4.10968 1.46394C4.50968 0.668107 5.15968 0.668107 5.55551 1.46394Z" fill="#FFD203"/>
</svg>
