<svg width="9" height="10" viewBox="0 0 9 10" fill="none" xmlns="http://www.w3.org/2000/svg">
<path d="M4.88705 1.46394L5.62039 2.93061C5.72039 3.13477 5.98706 3.33061 6.21206 3.36811L7.54122 3.58894C8.39122 3.73061 8.59122 4.34727 7.97872 4.95561L6.94539 5.98894C6.77039 6.16394 6.67455 6.50144 6.72872 6.74311L7.02456 8.02227C7.25789 9.03477 6.72039 9.42644 5.82455 8.89727L4.57872 8.15977C4.35372 8.02644 3.98289 8.02644 3.75372 8.15977L2.50789 8.89727C1.61622 9.42644 1.07456 9.03061 1.30789 8.02227L1.60372 6.74311C1.65789 6.50144 1.56206 6.16394 1.38706 5.98894L0.353722 4.95561C-0.254611 4.34727 -0.058778 3.73061 0.791222 3.58894L2.12039 3.36811C2.34122 3.33061 2.60789 3.13477 2.70789 2.93061L3.44122 1.46394C3.84122 0.668107 4.49122 0.668107 4.88705 1.46394Z" fill="#FFD203"/>
</svg>
